<svg width="40" height="40" viewBox="0 0 40 40" fill="none" xmlns="http://www.w3.org/2000/svg">
<mask id="mask0_28_678" style="mask-type:alpha" maskUnits="userSpaceOnUse" x="0" y="0" width="40" height="40">
<rect width="40" height="40" fill="#D9D9D9" style="fill:#D9D9D9;fill:color(display-p3 0.8510 0.8510 0.8510);fill-opacity:1;"/>
</mask>
<g mask="url(#mask0_28_678)">
<path d="M3.33341 15.2779V7.77792C3.33341 7.02792 3.60883 6.37736 4.15966 5.82625C4.71078 5.27542 5.36133 5 6.11133 5H33.8888C34.6388 5 35.2894 5.27542 35.8405 5.82625C36.3913 6.37736 36.6667 7.02792 36.6667 7.77792V15.2779H33.8888V7.77792H6.11133V15.2779H3.33341ZM6.11133 30C5.36133 30 4.71078 29.7246 4.15966 29.1738C3.60883 28.6226 3.33341 27.9721 3.33341 27.2221V18.0554H6.11133V27.2221H33.8888V18.0554H36.6667V27.2221C36.6667 27.9721 36.3913 28.6226 35.8405 29.1738C35.2894 29.7246 34.6388 30 33.8888 30H6.11133ZM1.66675 35V32.2221H38.3334V35H1.66675ZM3.33341 18.0554V15.2779H13.3334C13.5865 15.2779 13.828 15.3426 14.058 15.4721C14.288 15.6018 14.4631 15.7871 14.5834 16.0279L16.7638 20.4304L22.1113 11.0279C22.2316 10.7962 22.4029 10.6226 22.6251 10.5071C22.8473 10.3912 23.0845 10.3333 23.3368 10.3333C23.589 10.3333 23.8297 10.3912 24.0588 10.5071C24.2883 10.6226 24.4631 10.8054 24.5834 11.0554L26.6684 15.2779H36.6667V18.0554H25.8055C25.5511 18.0554 25.308 17.9929 25.0763 17.8679C24.8449 17.7429 24.6713 17.5554 24.5555 17.3054L23.2501 14.6529L17.903 24C17.7877 24.2408 17.6148 24.4214 17.3842 24.5417C17.1537 24.6619 16.9116 24.7221 16.658 24.7221C16.4047 24.7221 16.1645 24.6574 15.9376 24.5279C15.7106 24.3982 15.537 24.2129 15.4167 23.9721L12.4584 18.0554H3.33341Z" fill="white" style="fill:white;fill-opacity:1;"/>
</g>
</svg>
