<svg width="40" height="40" viewBox="0 0 40 40" fill="none" xmlns="http://www.w3.org/2000/svg">
<mask id="mask0_28_672" style="mask-type:alpha" maskUnits="userSpaceOnUse" x="0" y="0" width="40" height="40">
<rect width="40" height="40" fill="#D9D9D9" style="fill:#D9D9D9;fill:color(display-p3 0.8510 0.8510 0.8510);fill-opacity:1;"/>
</mask>
<g mask="url(#mask0_28_672)">
<path d="M29.1675 29.2367L35.3371 23.0642C35.6552 22.7486 36.0264 22.5978 36.4509 22.6117C36.875 22.6255 37.2493 22.7903 37.5738 23.1058C37.871 23.4211 38.0198 23.79 38.02 24.2125C38.0203 24.6347 37.8638 25.0025 37.5505 25.3158L30.2825 32.5937C29.9645 32.909 29.5932 33.0667 29.1688 33.0667C28.7446 33.0667 28.3748 32.909 28.0592 32.5937L24.323 28.8437C24.0124 28.5373 23.8582 28.1704 23.8605 27.7429C23.8624 27.3151 24.0177 26.9462 24.3263 26.6362C24.6327 26.3282 25.0011 26.1787 25.4317 26.1879C25.8623 26.1973 26.2306 26.3458 26.5367 26.6333L29.1675 29.2367ZM9.72087 30.2792L5.74753 34.2525C5.24809 34.7519 4.67434 34.8661 4.02628 34.595C3.37823 34.3242 3.0542 33.8403 3.0542 33.1433V6.21082C3.0542 5.34804 3.36503 4.60512 3.9867 3.98207C4.60837 3.35901 5.34975 3.04749 6.21087 3.04749H33.7892C34.652 3.04749 35.3949 3.35901 36.018 3.98207C36.641 4.60512 36.9525 5.34804 36.9525 6.21082V16.8371C36.9525 17.286 36.7988 17.6622 36.4913 17.9658C36.1838 18.2697 35.8074 18.4217 35.3621 18.4217C34.9166 18.4217 34.5431 18.2697 34.2417 17.9658C33.94 17.6622 33.7892 17.286 33.7892 16.8371V6.21082H6.21087V29.5946L8.5267 27.1225H18.5105C18.9549 27.1225 19.3289 27.2748 19.6325 27.5796C19.9364 27.8846 20.0884 28.26 20.0884 28.7058C20.0884 29.1517 19.9364 29.5253 19.6325 29.8267C19.3289 30.1283 18.9549 30.2792 18.5105 30.2792H9.72087Z" fill="white" style="fill:white;fill-opacity:1;"/>
</g>
</svg>
